<svg width="22" height="20" viewBox="0 0 22 20" fill="none" xmlns="http://www.w3.org/2000/svg">
<path d="M10.975 19.95C9.74167 19.95 8.57917 19.7166 7.4875 19.25C6.39583 18.7833 5.44583 18.1458 4.6375 17.3375C3.82917 16.5291 3.1875 15.5791 2.7125 14.4875C2.2375 13.3958 2 12.225 2 10.975C2 9.74162 2.2375 8.57912 2.7125 7.48745C3.1875 6.39578 3.82917 5.44162 4.6375 4.62495C5.44583 3.80828 6.39583 3.16662 7.4875 2.69995C8.57917 2.23328 9.74167 1.99995 10.975 1.99995C12.2083 1.99995 13.3708 2.23328 14.4625 2.69995C15.5542 3.16662 16.5083 3.80828 17.325 4.62495C18.1417 5.44162 18.7833 6.39578 19.25 7.48745C19.7167 8.57912 19.95 9.74162 19.95 10.975C19.95 12.225 19.7167 13.3958 19.25 14.4875C18.7833 15.5791 18.1417 16.5291 17.325 17.3375C16.5083 18.1458 15.5542 18.7833 14.4625 19.25C13.3708 19.7166 12.2083 19.95 10.975 19.95ZM14 15.05L15.05 14L11.8 10.75V5.99995H10.3V11.35L14 15.05ZM4.35 0.324951L5.4 1.37495L1.3 5.32495L0.25 4.27495L4.35 0.324951ZM17.6 0.324951L21.7 4.27495L20.65 5.32495L16.55 1.37495L17.6 0.324951ZM10.975 18.45C13.0583 18.45 14.825 17.725 16.275 16.275C17.725 14.825 18.45 13.0583 18.45 10.975C18.45 8.89162 17.725 7.12495 16.275 5.67495C14.825 4.22495 13.0583 3.49995 10.975 3.49995C8.89167 3.49995 7.125 4.22495 5.675 5.67495C4.225 7.12495 3.5 8.89162 3.5 10.975C3.5 13.0583 4.225 14.825 5.675 16.275C7.125 17.725 8.89167 18.45 10.975 18.45Z" fill="#8D8D8D"/>
</svg>
