<svg width="22" height="22" viewBox="0 0 22 22" fill="none" xmlns="http://www.w3.org/2000/svg">
<path d="M19.65 8.37505L18.6 7.32505L19.725 6.20005L15.8 2.27505L14.675 3.40005L13.6 2.32505L14.35 1.55005C14.7333 1.16672 15.2083 0.979216 15.775 0.987549C16.3416 0.995882 16.8166 1.19172 17.2 1.57505L20.4249 4.80005C20.8083 5.18338 21 5.65422 21 6.21255C21 6.77088 20.8083 7.24172 20.4249 7.62505L19.65 8.37505ZM7.64995 20.4001C7.26662 20.7834 6.79578 20.9751 6.23745 20.9751C5.67912 20.9751 5.20828 20.7834 4.82495 20.4001L1.24995 16.8251C0.966618 16.5417 0.824951 16.1876 0.824951 15.7626C0.824951 15.3376 0.966618 14.9834 1.24995 14.7001L2.34995 13.6001L3.42495 14.6501L2.29995 15.7751L6.22495 19.7001L7.34995 18.5751L8.39995 19.6501L7.64995 20.4001ZM17.575 12.7L19.7 10.575L11.425 2.30005L9.29995 4.42505L17.575 12.7ZM10.575 19.7001L12.725 17.5501L4.44995 9.27505L2.29995 11.425L10.575 19.7001ZM10.8 13.5001L13.525 10.775L11.225 8.47505L8.49995 11.2L10.8 13.5001ZM11.625 20.7501C11.3416 21.0334 10.9916 21.1751 10.575 21.1751C10.1583 21.1751 9.80828 21.0334 9.52495 20.7501L1.24995 12.475C0.966618 12.1917 0.824951 11.8417 0.824951 11.425C0.824951 11.0084 0.966618 10.6584 1.24995 10.375L3.37495 8.22505C3.65828 7.94172 4.01245 7.80005 4.43745 7.80005C4.86245 7.80005 5.21662 7.94172 5.49995 8.22505L7.42495 10.15L10.175 7.40005L8.24995 5.47505C7.96662 5.19172 7.82495 4.84172 7.82495 4.42505C7.82495 4.00838 7.96662 3.65838 8.24995 3.37505L10.375 1.22505C10.6583 0.941715 11.0125 0.800049 11.4375 0.800049C11.8625 0.800049 12.2166 0.941715 12.5 1.22505L20.775 9.50005C21.0583 9.78338 21.2 10.1375 21.2 10.5625C21.2 10.9875 21.0583 11.3417 20.775 11.625L18.625 13.7501C18.3416 14.0334 17.9916 14.1751 17.575 14.1751C17.1583 14.1751 16.8083 14.0334 16.525 13.7501L14.6 11.825L11.85 14.5751L13.775 16.5001C14.0583 16.7834 14.2 17.1376 14.2 17.5626C14.2 17.9876 14.0583 18.3417 13.775 18.6251L11.625 20.7501Z" fill="#8D8D8D"/>
</svg>
