<svg width="20" height="18" viewBox="0 0 20 18" fill="none" xmlns="http://www.w3.org/2000/svg">
<path d="M1.5 18C1.08333 18 0.729167 17.8542 0.4375 17.5625C0.145833 17.2708 0 16.9167 0 16.5V0L1.675 1.675L3.325 0L5 1.675L6.675 0L8.325 1.675L10 0L11.675 1.675L13.325 0L15 1.675L16.675 0L18.325 1.675L20 0V16.5C20 16.9167 19.8542 17.2708 19.5625 17.5625C19.2708 17.8542 18.9167 18 18.5 18H1.5ZM1.5 16.5H9.25V9.5H1.5V16.5ZM10.75 16.5H18.5V13.75H10.75V16.5ZM10.75 12.25H18.5V9.5H10.75V12.25ZM1.5 8H18.5V5H1.5V8Z" fill="#8D8D8D"/>
</svg>
