<svg width="18" height="19" viewBox="0 0 18 19" fill="none" xmlns="http://www.w3.org/2000/svg">
<path d="M8.925 18.875C6.44167 18.875 4.33333 17.9592 2.6 16.1276C0.866667 14.296 0 12.0781 0 9.47396H1.5C1.5 11.6441 2.21667 13.4931 3.65 15.0208C5.08333 16.5486 6.84167 17.3125 8.925 17.3125C11.0417 17.3125 12.8333 16.5399 14.3 14.9948C15.7667 13.4497 16.5 11.5747 16.5 9.36979C16.5 7.21701 15.7583 5.39844 14.275 3.91406C12.7917 2.42969 11.0083 1.6875 8.925 1.6875C7.79167 1.6875 6.72917 1.9566 5.7375 2.49479C4.74583 3.03299 3.88333 3.74479 3.15 4.63021H5.775V6.19271H0.55V0.776042H2.05V3.53646C2.91667 2.47743 3.94583 1.6441 5.1375 1.03646C6.32917 0.428819 7.59167 0.125 8.925 0.125C10.175 0.125 11.35 0.368056 12.45 0.854167C13.55 1.34028 14.5125 2.00434 15.3375 2.84635C16.1625 3.68837 16.8125 4.67361 17.2875 5.80208C17.7625 6.93056 18 8.14583 18 9.44792C18 10.75 17.7625 11.974 17.2875 13.1198C16.8125 14.2656 16.1625 15.2639 15.3375 16.1146C14.5125 16.9653 13.55 17.638 12.45 18.1328C11.35 18.6276 10.175 18.875 8.925 18.875ZM12.125 13.7448L8.275 9.78646V4.21354H9.775V9.13542L13.2 12.625L12.125 13.7448Z" fill="black"/>
</svg>
